<?xml version="1.0" encoding="UTF-8"?>
<svg width="24px" height="24px" viewBox="0 0 24 24" version="1.1" xmlns="http://www.w3.org/2000/svg">
    <g stroke="none" stroke-width="1" fill="none" fill-rule="evenodd">
        <path d="M12,2C8.43,2,5.23,3.54,3.01,6L12,22l8.99-16C18.78,3.55,15.57,2,12,2z M7,7c0-1.1,0.9-2,2-2s2,0.9,2,2s-0.9,2-2,2S7,8.1,7,7z M12,15c-1.1,0-2-0.9-2-2s0.9-2,2-2s2,0.9,2,2S13.1,15,12,15z M17,7c0-1.1,0.9-2,2-2s2,0.9,2,2s-0.9,2-2,2S17,8.1,17,7z" fill="#FFFFFF"/>
    </g>
</svg> 