<?xml version="1.0" encoding="UTF-8"?>
<svg width="24px" height="24px" viewBox="0 0 24 24" version="1.1" xmlns="http://www.w3.org/2000/svg">
    <g stroke="none" stroke-width="1" fill="none" fill-rule="evenodd">
        <path d="M20,2H4C2.9,2,2,2.9,2,4v18l4-4h14c1.1,0,2-0.9,2-2V4C22,2.9,21.1,2,20,2z M6,9h12c0.55,0,1,0.45,1,1s-0.45,1-1,1H6c-0.55,0-1-0.45-1-1S5.45,9,6,9z M14,14H6c-0.55,0-1-0.45-1-1s0.45-1,1-1h8c0.55,0,1,0.45,1,1S14.55,14,14,14z M18,8H6C5.45,8,5,7.55,5,7s0.45-1,1-1h12c0.55,0,1,0.45,1,1S18.55,8,18,8z" fill="#FFFFFF"/>
    </g>
</svg> 