<?xml version="1.0" encoding="UTF-8" standalone="no"?>
<svg width="24" height="24" viewBox="0 0 24 24" xmlns="http://www.w3.org/2000/svg">
  <g fill="none" stroke="#FFFFFF" stroke-width="1.5">
    <!-- Microphone -->
    <path d="M9,4 L9,12 C9,13.6568542 10.3431458,15 12,15 C13.6568542,15 15,13.6568542 15,12 L15,4 C15,2.34314575 13.6568542,1 12,1 C10.3431458,1 9,2.34314575 9,4 Z" />
    <path d="M5,10 L5,12 C5,15.8659932 8.13400675,19 12,19 C15.8659932,19 19,15.8659932 19,12 L19,10" />
    <line x1="12" y1="19" x2="12" y2="23" />
    <line x1="8" y1="23" x2="16" y2="23" />
    
    <!-- Sound waves -->
    <path d="M2,10 C3,8 3,16 2,14" />
    <path d="M22,10 C21,8 21,16 22,14" />
  </g>
</svg> 